<svg xmlns="http://www.w3.org/2000/svg" height="1em" viewBox="0 0 512 512">
  <!-- Outer circle fill -->
  <circle cx="256" cy="256" r="256" fill="white"/>
  <!-- Inner circle fill with opacity 0.7 -->
  <circle cx="256" cy="256" r="256" fill="rgba(0, 0, 0, 0.7)"/>
  <!-- Arrow fill is light green -->
  <path fill="#90EE90" d="M376.9 294.6L269.8 394.5c-3.8 3.5-8.7 5.5-13.8 5.5s-10.1-2-13.8-5.5L135.1 294.6c-4.5-4.2-7.1-10.1-7.1-16.3c0-12.3 10-22.3 22.3-22.3l57.7 0 0-96c0-17.7 14.3-32 32-32l32 0c17.7 0 32 14.3 32 32l0 96 57.7 0c12.3 0 22.3 10 22.3 22.3c0 6.2-2.6 12.1-7.1 16.3z"/>
</svg>
